<?xml version="1.0" encoding="utf-8"?>
<!-- Generator: Adobe Illustrator 16.0.0, SVG Export Plug-In . SVG Version: 6.00 Build 0)  -->
<!DOCTYPE svg PUBLIC "-//W3C//DTD SVG 1.1//EN" "http://www.w3.org/Graphics/SVG/1.1/DTD/svg11.dtd">
<svg version="1.1" id="Layer_1" xmlns="http://www.w3.org/2000/svg" xmlns:xlink="http://www.w3.org/1999/xlink" x="0px" y="0px"
	 width="14px" height="10px" viewBox="0 0 14 10" enable-background="new 0 0 14 10" xml:space="preserve">
<path fill="#A27D65" d="M13.334,2.659V8.25c0,0.967-0.784,1.75-1.75,1.75H2.417c-0.464,0-0.909-0.185-1.237-0.513
	S0.667,8.715,0.667,8.25V2.659l6.133,3.374c0.125,0.068,0.277,0.068,0.401,0L13.334,2.659L13.334,2.659z M11.584,0
	c0.456,0,0.895,0.179,1.222,0.498c0.327,0.319,0.517,0.753,0.526,1.21L7,5.191L0.667,1.708l0-0.03
	C0.687,1.227,0.879,0.8,1.205,0.487C1.531,0.174,1.965,0,2.417,0H11.584z"/>
</svg>
