<svg width="14" height="18" viewBox="0 0 14 18" fill="none" xmlns="http://www.w3.org/2000/svg">
<path d="M7.00005 0.607147C10.8465 0.607147 13.9643 3.725 13.9643 7.57143C13.9643 10.5143 11.8965 13.7214 7.81434 17.2271C7.58735 17.4221 7.29795 17.5292 6.99871 17.529C6.69948 17.5287 6.41026 17.4211 6.18362 17.2257L5.91362 16.9914C2.01219 13.5771 0.0357666 10.4486 0.0357666 7.57143C0.0357666 3.725 3.15362 0.607147 7.00005 0.607147ZM7.00005 1.67858C5.43717 1.67858 3.9383 2.29943 2.83317 3.40455C1.72805 4.50968 1.1072 6.00855 1.1072 7.57143C1.1072 10.0729 2.92719 12.955 6.61719 16.1836L6.88362 16.4143C6.91602 16.4421 6.95733 16.4575 7.00005 16.4575C7.04278 16.4575 7.08408 16.4421 7.11648 16.4143C10.9851 13.0914 12.8929 10.1321 12.8929 7.57143C12.8929 6.79757 12.7405 6.03129 12.4443 5.31633C12.1482 4.60138 11.7141 3.95176 11.1669 3.40455C10.6197 2.85735 9.9701 2.42329 9.25515 2.12714C8.5402 1.831 7.77391 1.67858 7.00005 1.67858ZM7.00005 4.89286C7.71045 4.89286 8.39176 5.17507 8.89409 5.6774C9.39642 6.17973 9.67862 6.86103 9.67862 7.57143C9.67862 8.28184 9.39642 8.96314 8.89409 9.46547C8.39176 9.9678 7.71045 10.25 7.00005 10.25C6.28965 10.25 5.60835 9.9678 5.10602 9.46547C4.60369 8.96314 4.32148 8.28184 4.32148 7.57143C4.32148 6.86103 4.60369 6.17973 5.10602 5.6774C5.60835 5.17507 6.28965 4.89286 7.00005 4.89286ZM7.00005 5.96429C6.57381 5.96429 6.16503 6.13361 5.86363 6.43501C5.56223 6.73641 5.39291 7.14519 5.39291 7.57143C5.39291 7.99767 5.56223 8.40646 5.86363 8.70786C6.16503 9.00925 6.57381 9.17858 7.00005 9.17858C7.42629 9.17858 7.83507 9.00925 8.13647 8.70786C8.43787 8.40646 8.60719 7.99767 8.60719 7.57143C8.60719 7.14519 8.43787 6.73641 8.13647 6.43501C7.83507 6.13361 7.42629 5.96429 7.00005 5.96429Z" fill="#69C328"/>
</svg>
