<svg width="22" height="21" viewBox="0 0 22 21" fill="none" xmlns="http://www.w3.org/2000/svg">
<path d="M7.88672 20.3333C8.71515 20.3333 9.38672 19.6617 9.38672 18.8333C9.38672 18.0048 8.71515 17.3333 7.88672 17.3333C7.05829 17.3333 6.38672 18.0048 6.38672 18.8333C6.38672 19.6617 7.05829 20.3333 7.88672 20.3333Z" fill="#69C328"/>
<path d="M17 20.3333C17.8284 20.3333 18.5 19.6617 18.5 18.8333C18.5 18.0048 17.8284 17.3333 17 17.3333C16.1716 17.3333 15.5 18.0048 15.5 18.8333C15.5 19.6617 16.1716 20.3333 17 20.3333Z" fill="#69C328"/>
<path d="M21.0537 2.57991C20.9916 2.50343 20.9134 2.44165 20.8247 2.399C20.7359 2.35635 20.6388 2.33389 20.5403 2.33324H6.66032L7.09365 3.66658H19.667L17.887 11.6666H7.88698L4.84032 2.01991C4.80736 1.91755 4.75014 1.82468 4.67352 1.74922C4.5969 1.67377 4.50317 1.61796 4.40032 1.58658L1.66698 0.746577C1.58294 0.72075 1.49463 0.71173 1.4071 0.720033C1.31956 0.728335 1.23453 0.753797 1.15683 0.794964C0.999928 0.878105 0.882477 1.02017 0.830318 1.18991C0.778158 1.35965 0.795564 1.54316 0.878705 1.70006C0.961846 1.85697 1.10391 1.97442 1.27365 2.02658L3.66698 2.75991L6.72698 12.4266L5.63365 13.3199L5.54698 13.4066C5.27654 13.7182 5.12325 14.1145 5.11352 14.527C5.10378 14.9395 5.23821 15.3425 5.49365 15.6666C5.67536 15.8876 5.90626 16.0629 6.16788 16.1787C6.4295 16.2945 6.71458 16.3474 7.00032 16.3332H18.127C18.3038 16.3332 18.4734 16.263 18.5984 16.138C18.7234 16.013 18.7937 15.8434 18.7937 15.6666C18.7937 15.4898 18.7234 15.3202 18.5984 15.1952C18.4734 15.0702 18.3038 14.9999 18.127 14.9999H6.89365C6.81688 14.9973 6.74209 14.9749 6.67649 14.9349C6.61089 14.895 6.55671 14.8388 6.51918 14.7717C6.48165 14.7047 6.46204 14.6292 6.46224 14.5523C6.46243 14.4755 6.48244 14.4001 6.52032 14.3332L8.12698 12.9999H18.4203C18.5744 13.0037 18.7251 12.9539 18.8466 12.8591C18.9682 12.7643 19.0531 12.6303 19.087 12.4799L21.2003 3.14658C21.2206 3.04719 21.2179 2.94448 21.1925 2.84629C21.1671 2.74809 21.1196 2.65698 21.0537 2.57991Z" fill="#69C328"/>
</svg>
