<?xml version="1.0" encoding="utf-8"?>
<!-- Generator: Adobe Illustrator 16.0.0, SVG Export Plug-In . SVG Version: 6.00 Build 0)  -->
<!DOCTYPE svg PUBLIC "-//W3C//DTD SVG 1.1//EN" "http://www.w3.org/Graphics/SVG/1.1/DTD/svg11.dtd">
<svg version="1.1" id="Layer_1" xmlns="http://www.w3.org/2000/svg" xmlns:xlink="http://www.w3.org/1999/xlink" x="0px" y="0px"
	 width="32px" height="32px" viewBox="240 240 32 32" enable-background="new 240 240 32 32" xml:space="preserve">
<title>ionicons-v5-j</title>
<path fill="#69C328" d="M261.475,242.328c-1.391-1.5-3.332-2.327-5.475-2.327c-2.154,0-4.102,0.821-5.485,2.313
	c-1.399,1.508-2.081,3.557-1.92,5.77c0.317,4.366,3.639,7.917,7.406,7.917s7.083-3.551,7.405-7.915
	C263.567,245.893,262.882,243.848,261.475,242.328z"/>
<path fill="#69C328" d="M268.571,272.001h-25.143c-0.667,0.009-1.301-0.283-1.729-0.795c-0.464-0.556-0.651-1.313-0.513-2.079
	c0.603-3.344,2.484-6.153,5.441-8.126c2.627-1.751,5.955-2.714,9.371-2.714c3.417,0,6.744,0.964,9.371,2.714
	c2.957,1.972,4.839,4.781,5.442,8.126c0.139,0.766-0.05,1.523-0.514,2.079C269.873,271.718,269.238,272.01,268.571,272.001z"/>
</svg>
