<svg width="24" height="23" viewBox="0 0 24 23" fill="none" xmlns="http://www.w3.org/2000/svg">
<path d="M8.36756 22.8889C9.33405 22.8889 10.1176 22.1054 10.1176 21.1389C10.1176 20.1724 9.33405 19.3889 8.36756 19.3889C7.40106 19.3889 6.61755 20.1724 6.61755 21.1389C6.61755 22.1054 7.40106 22.8889 8.36756 22.8889Z" fill="black"/>
<path d="M19 22.8889C19.9665 22.8889 20.75 22.1054 20.75 21.1389C20.75 20.1724 19.9665 19.3889 19 19.3889C18.0335 19.3889 17.25 20.1724 17.25 21.1389C17.25 22.1054 18.0335 22.8889 19 22.8889Z" fill="black"/>
<path d="M23.7288 2.17667C23.6564 2.08745 23.5652 2.01537 23.4616 1.96561C23.3581 1.91586 23.2448 1.88966 23.1299 1.8889H6.93659L7.44215 3.44445H22.111L20.0344 12.7778H8.3677L4.81326 1.52334C4.77481 1.40392 4.70805 1.29557 4.61866 1.20754C4.52927 1.11951 4.41992 1.0544 4.29992 1.01778L1.11103 0.0377845C1.01298 0.00765343 0.909952 -0.00286945 0.807832 0.00681658C0.705712 0.0165026 0.606499 0.0462079 0.515858 0.0942365C0.332802 0.191234 0.195776 0.356979 0.134923 0.555007C0.0740706 0.753035 0.094377 0.967127 0.191375 1.15018C0.288373 1.33324 0.454117 1.47027 0.652146 1.53112L3.44437 2.38667L7.01437 13.6645L5.73881 14.7067L5.6377 14.8078C5.32219 15.1714 5.14335 15.6336 5.13199 16.1149C5.12063 16.5962 5.27747 17.0664 5.57548 17.4445C5.78747 17.7023 6.05685 17.9069 6.36208 18.0419C6.6673 18.177 6.9999 18.2387 7.33326 18.2222H20.3144C20.5206 18.2222 20.7185 18.1403 20.8643 17.9944C21.0102 17.8486 21.0921 17.6507 21.0921 17.4445C21.0921 17.2382 21.0102 17.0403 20.8643 16.8945C20.7185 16.7486 20.5206 16.6667 20.3144 16.6667H7.20881C7.11925 16.6636 7.03199 16.6375 6.95546 16.5909C6.87893 16.5443 6.81572 16.4787 6.77193 16.4005C6.72814 16.3223 6.70526 16.2341 6.70549 16.1445C6.70573 16.0549 6.72906 15.9669 6.77326 15.8889L8.6477 14.3333H20.6566C20.8364 14.3377 21.0121 14.2797 21.154 14.1691C21.2958 14.0585 21.3949 13.9021 21.4344 13.7267L23.8999 2.83779C23.9236 2.72183 23.9205 2.60201 23.8908 2.48745C23.8612 2.37288 23.8057 2.26659 23.7288 2.17667Z" fill="black"/>
</svg>
