<?xml version="1.0" encoding="utf-8"?>
<!-- Generator: Adobe Illustrator 16.0.0, SVG Export Plug-In . SVG Version: 6.00 Build 0)  -->
<!DOCTYPE svg PUBLIC "-//W3C//DTD SVG 1.1//EN" "http://www.w3.org/Graphics/SVG/1.1/DTD/svg11.dtd">
<svg version="1.1" id="Layer_1" xmlns="http://www.w3.org/2000/svg" xmlns:xlink="http://www.w3.org/1999/xlink" x="0px" y="0px"
	 width="12px" height="12px" viewBox="0 0 12 12" enable-background="new 0 0 12 12" xml:space="preserve">
<path fill="#A27D65" d="M10.82,8.174L9.127,7.98c-0.199-0.023-0.401-0.002-0.59,0.064C8.348,8.11,8.175,8.219,8.033,8.359
	L6.807,9.586c-1.893-0.962-3.431-2.5-4.393-4.393L3.646,3.96c0.287-0.287,0.427-0.687,0.38-1.093l-0.193-1.68
	C3.795,0.861,3.64,0.562,3.395,0.344S2.834,0.006,2.507,0.007H1.354c-0.753,0-1.38,0.626-1.333,1.38
	C0.374,7.08,4.927,11.627,10.613,11.98c0.754,0.046,1.38-0.58,1.38-1.334V9.493C12,8.82,11.493,8.254,10.82,8.174z"/>
</svg>
